<svg xmlns="http://www.w3.org/2000/svg" width="259" height="92.263"><path d="M51.518 0C28.776 0 9.878 16.458 6.083 38.113a7.92 7.92 0 0 1-.007 15.84H6.05c3.715 21.752 22.657 38.31 45.468 38.31 25.478 0 46.132-20.653 46.132-46.131S76.996 0 51.518 0" fill="#68217a"/><path d="M43.022 60.113h-6.357L25.14 42.543c-.676-1.026-1.144-1.8-1.404-2.32h-.078c.104 1.04.156 2.548.156 4.524v15.366h-5.947V32.15h6.786l11.095 17.024 1.404 2.281h.078c-.104-.676-.156-1.956-.156-3.841V32.15h5.948zM66.188 60.113h-16.77V32.15h16.126v5.129h-9.828v6.22h9.146v5.11h-9.146v6.395h10.472zM90.309 37.279h-7.975v22.834h-6.318V37.28h-7.937V32.15h22.23z" fill="#fff"/><path d="M11.657 46.173a5.828 5.828 0 1 1-11.657 0 5.828 5.828 0 0 1 11.657 0" fill="#cf18fd"/><g style="line-height:1.25;-inkscape-font-specification:'Avenir LT Std'" aria-label="foundation" font-weight="400" font-size="329.433" font-family="Avenir LT Std" letter-spacing="0" word-spacing="0" fill="#68217a" stroke-width="3.432"><path d="M106.545 58.781h1.961V45.447h3.53v-1.765h-3.53v-4.216c0-2.713.85-4.02 2.648-4.02.751 0 1.307.098 1.765.327l.392-1.7c-.589-.261-1.308-.392-2.255-.392-1.929 0-4.51 1.177-4.51 5.066v4.935h-3.138v1.765h3.137zM114.287 51.232c0 4.608 3.301 7.942 7.942 7.942 4.64 0 7.942-3.334 7.942-7.942 0-4.608-3.301-7.942-7.942-7.942s-7.942 3.334-7.942 7.942zm1.961 0c0-3.4 2.288-6.177 5.98-6.177 3.694 0 5.982 2.778 5.982 6.177 0 3.399-2.288 6.177-5.981 6.177s-5.981-2.778-5.981-6.177zM147.32 43.682h-1.96v7.55c0 4.15-2.32 6.177-5.23 6.177-3.104 0-3.79-2.386-3.79-4.837v-8.89h-1.961v8.988c0 3.3 1.045 6.504 5.752 6.504 2.45 0 4.38-1.373 5.163-3.04h.099c.065.294.098 1.536.13 2.647h1.961c0-.784-.163-3.137-.163-4.248zM152.734 58.781h1.961v-7.55c0-4.15 2.32-6.176 5.23-6.176 3.104 0 3.79 2.386 3.79 4.837v8.89h1.962v-8.988c0-3.301-1.046-6.504-5.753-6.504-2.45 0-4.379 1.373-5.163 3.04h-.098c-.066-.295-.098-1.537-.131-2.648h-1.961c0 .784.163 3.138.163 4.249zM184.13 58.781h1.961V34.074h-1.96v12.255h-.066c-1.21-2.091-3.791-3.04-6.046-3.04-4.641 0-7.942 3.335-7.942 7.943s3.3 7.942 7.942 7.942c2.255 0 4.837-.948 6.046-3.04h.065zm.196-7.55c0 3.4-2.745 6.178-6.307 6.178-3.693 0-5.981-2.778-5.981-6.177 0-3.4 2.288-6.177 5.98-6.177 3.563 0 6.308 2.778 6.308 6.177zM202.64 48.748c0-3.824-2.354-5.458-6.014-5.458-1.961 0-4.314.752-5.752 2.124l1.143 1.34c1.34-1.144 2.844-1.7 4.609-1.7 2.418 0 4.248 1.047 4.248 3.661v.915h-2.287c-2.974 0-8.367.458-8.367 5.066 0 3.203 2.745 4.478 5.327 4.478 2.55 0 4.184-.916 5.295-2.844h.065c0 .85.065 1.7.196 2.451h1.83c-.228-1.732-.294-3.399-.294-6.34zm-1.766 2.451v1.013c0 2.517-1.078 5.197-5.261 5.197-1.635 0-3.432-.948-3.432-2.811 0-2.582 3.268-3.399 6.536-3.399zM215.272 43.682h-4.314v-4.347h-1.961v4.347h-3.268v1.765h3.268v9.837c0 2.157 1.079 3.89 3.89 3.89.75 0 1.83-.262 2.548-.523l-.163-1.765c-.686.294-1.47.523-2.222.523-1.308 0-2.092-.785-2.092-2.125v-9.837h4.314zM219.128 58.781h1.961V43.682h-1.961zm-.49-21.08c0 .817.653 1.471 1.47 1.471.818 0 1.471-.654 1.471-1.47 0-.818-.653-1.471-1.47-1.471-.818 0-1.471.653-1.471 1.47zM225.803 51.232c0 4.608 3.3 7.942 7.942 7.942 4.64 0 7.942-3.334 7.942-7.942 0-4.608-3.301-7.942-7.942-7.942s-7.942 3.334-7.942 7.942zm1.96 0c0-3.4 2.289-6.177 5.982-6.177s5.98 2.778 5.98 6.177c0 3.399-2.287 6.177-5.98 6.177-3.693 0-5.981-2.778-5.981-6.177zM246.058 58.781h1.96v-7.55c0-4.15 2.321-6.176 5.23-6.176 3.105 0 3.791 2.386 3.791 4.837v8.89H259v-8.988c0-3.301-1.046-6.504-5.752-6.504-2.451 0-4.38 1.373-5.164 3.04h-.098c-.065-.295-.098-1.537-.13-2.648h-1.962c0 .784.164 3.138.164 4.249z"/></g></svg>