<?xml version="1.0" encoding="UTF-8"?>
<!-- Generated by Pixelmator Pro 3.6.17 -->
<svg width="1298" height="468" viewBox="0 0 1298 468" xmlns="http://www.w3.org/2000/svg">
    <g id="Group">
        <g transform="scale(0.5) translate(155, 234)">
        <path id="Path" fill="#633e9e" stroke="none" d="M 237.044922 271.851074 L 237.044922 271.851074 C 215.213867 258.709229 208.10498 230.095215 221.246582 208.264404 L 332.179688 23.986816 C 345.321289 2.156006 373.935547 -4.953125 395.766113 8.188721 L 395.766113 8.188721 C 417.597168 21.330811 424.706543 49.944824 411.564453 71.775635 L 300.631348 256.052979 C 287.489746 277.883789 258.875488 284.99292 237.044922 271.851074 Z"/>
        <path id="path1" fill="#43257c" stroke="none" d="M 387.104004 461.759033 L 387.104004 461.759277 C 364.807129 474.094238 336.472168 465.943848 324.137207 443.647217 L 220.014648 255.437988 C 207.679199 233.141357 215.830078 204.806152 238.126465 192.471191 L 238.126465 192.470947 C 260.42334 180.135986 288.758301 188.286377 301.093262 210.583008 L 405.21582 398.792236 C 417.550781 421.088867 409.400391 449.424072 387.104004 461.759033 Z"/>
        <path id="path2" fill="#8361c5" stroke="none" d="M 0.520996 233.058594 L 0.520996 233.058838 C 0.520996 258.540039 21.369385 279.388428 46.850342 279.388428 L 261.941895 279.388428 C 287.422852 279.388428 308.271484 258.540039 308.271484 233.058838 L 308.271484 233.058594 C 308.271484 207.577393 287.422852 186.729248 261.941895 186.729248 L 46.850342 186.729248 C 21.369385 186.729248 0.520996 207.577393 0.520996 233.058594 Z"/>
        </g>
        <g id="g1">
            <path id="path3" fill="#000000" stroke="none" d="M 538.687988 169.882324 C 549.139648 175.918701 557.297852 184.404297 563.161621 195.339111 C 569.025879 206.273926 571.958008 218.778076 571.958008 232.851807 L 571.958008 239.474609 C 571.958008 253.617432 569.025879 266.138916 563.161621 277.039063 C 557.297852 287.939453 549.122559 296.407715 538.63623 302.444336 C 528.149902 308.480713 516.145996 311.499023 502.624023 311.499023 L 469.92334 311.499023 L 455.849609 311.499023 L 455.849609 160.827393 L 488.343262 160.827393 L 502.831055 160.827393 C 516.28418 160.827393 528.236328 163.845703 538.687988 169.882324 Z M 538.946777 232.644775 C 538.946777 217.743164 535.876953 206.428955 529.736816 198.702393 C 523.59668 190.975586 514.628418 187.112061 502.831055 187.112061 L 488.343262 187.112061 L 488.343262 285.317871 L 502.624023 285.317871 C 514.421387 285.317871 523.424316 281.402588 529.633301 273.57251 C 535.842285 265.742188 538.946777 254.376221 538.946777 239.474609 L 538.946777 232.644775 Z"/>
            <path id="path4" fill="#000000" stroke="none" d="M 693.033691 199.530273 L 693.033691 311.499023 L 663.747559 311.499023 L 662.919922 299.80542 C 659.398438 304.220703 655.086426 307.618408 649.981445 309.998535 C 644.875977 312.378662 639.046387 313.568604 632.492676 313.568604 C 620.833496 313.568604 611.709961 310.188232 605.121582 303.427246 C 598.533203 296.666504 595.23877 286.180176 595.23877 271.968506 L 595.23877 199.530273 L 626.387207 199.530273 L 626.387207 272.175293 C 626.387207 277.69458 627.749512 281.764893 630.474609 284.386475 C 633.199707 287.008057 636.977051 288.318848 641.806152 288.318848 C 651.395996 288.318848 658.053223 284.9729 661.78125 278.281006 L 661.78125 199.530273 L 693.033691 199.530273 Z"/>
            <path id="path5" fill="#000000" stroke="none" d="M 817.621582 265.656006 L 746.838867 265.656006 C 748.011719 272.623779 750.90918 278.160156 755.53125 282.265137 C 760.153809 286.369873 766.086914 288.422363 773.330566 288.422363 C 778.711914 288.422363 783.696289 287.404785 788.283691 285.369629 C 792.871582 283.334473 796.787109 280.281494 800.029297 276.211182 L 815.03418 293.49292 C 811.102051 299.150146 805.358887 303.910156 797.804199 307.773682 C 790.25 311.636963 781.402344 313.568604 771.260742 313.568604 C 759.808594 313.568604 749.857422 311.154053 741.40625 306.324951 C 732.95459 301.495605 726.470215 294.94165 721.951172 286.663086 C 717.432129 278.384521 715.172852 269.243408 715.172852 259.23999 L 715.172852 255.307617 C 715.172852 244.131348 717.277344 234.162598 721.485352 225.400879 C 725.693848 216.639404 731.764648 209.792236 739.69873 204.859619 C 747.632324 199.926758 757.014648 197.460449 767.846191 197.460449 C 778.401367 197.460449 787.404297 199.702637 794.85498 204.187012 C 802.306152 208.671143 807.962891 215.0354 811.82666 223.279541 C 815.689941 231.523682 817.621582 241.233887 817.621582 252.410156 L 817.621582 265.656006 Z M 786.990234 242.268799 C 786.852539 236.197754 785.179688 231.403076 781.971191 227.884521 C 778.763672 224.366211 773.98584 222.606934 767.63916 222.606934 C 761.706055 222.606934 757.066406 224.572998 753.720703 228.505371 C 750.374512 232.437744 748.184082 237.853516 747.149414 244.752441 L 786.990234 244.752441 L 786.990234 242.268799 Z"/>
            <path id="path6" fill="#000000" stroke="none" d="M 926.066406 207.550049 C 932.206055 214.276611 935.276367 225.262939 935.276367 240.509521 L 935.276367 311.499023 L 904.023926 311.499023 L 904.023926 240.406006 C 904.023926 233.783203 902.609863 229.178223 899.78125 226.591064 C 896.953125 224.003906 892.572266 222.710449 886.63916 222.710449 C 882.568848 222.710449 879.033203 223.572754 876.031738 225.297607 C 873.030762 227.022217 870.599121 229.471191 868.736328 232.644775 L 868.736328 311.499023 L 837.484375 311.499023 L 837.484375 199.530273 L 866.770508 199.530273 L 867.805176 212.465576 C 871.737305 207.567383 876.428711 203.842041 881.878906 201.289307 C 887.329102 198.736816 893.365234 197.460449 899.988281 197.460449 C 911.233398 197.460449 919.92627 200.82373 926.066406 207.550049 Z"/>
            <path id="path7" fill="#000000" stroke="none" d="M 1058.415527 152.548828 L 1058.415527 311.499023 L 1030.268066 311.499023 L 1028.71582 299.495117 C 1021.402832 308.877441 1011.95166 313.568604 1000.361328 313.568604 C 991.32373 313.568604 983.510742 311.136963 976.922363 306.273193 C 970.333984 301.409424 965.33252 294.700195 961.916992 286.145752 C 958.502441 277.591064 956.794922 267.829102 956.794922 256.859863 L 956.794922 254.686768 C 956.794922 243.303711 958.502441 233.300293 961.916992 224.676514 C 965.33252 216.052979 970.333984 209.361084 976.922363 204.60083 C 983.510742 199.840576 991.393066 197.460449 1000.568359 197.460449 C 1011.192871 197.460449 1020.057617 201.496338 1027.163574 209.568115 L 1027.163574 152.548828 L 1058.415527 152.548828 Z M 1027.163574 277.142578 L 1027.163574 233.886719 C 1023.576172 226.435791 1017.367188 222.710449 1008.536621 222.710449 C 1001.430664 222.710449 996.239258 225.60791 992.962402 231.403076 C 989.685547 237.197998 988.046875 244.959229 988.046875 254.686768 L 988.046875 256.859863 C 988.046875 266.449219 989.650879 274.089844 992.858887 279.781494 C 996.066895 285.4729 1001.223633 288.318848 1008.32959 288.318848 C 1017.091309 288.318848 1023.369141 284.593506 1027.163574 277.142578 Z"/>
            <path id="path8" fill="#000000" stroke="none" d="M 1183.630371 265.656006 L 1112.847656 265.656006 C 1114.020508 272.623779 1116.917969 278.160156 1121.540039 282.265137 C 1126.162598 286.369873 1132.095703 288.422363 1139.339355 288.422363 C 1144.720215 288.422363 1149.705078 287.404785 1154.29248 285.369629 C 1158.880371 283.334473 1162.79541 280.281494 1166.038086 276.211182 L 1181.043457 293.49292 C 1177.11084 299.150146 1171.367188 303.910156 1163.812988 307.773682 C 1156.258789 311.636963 1147.411133 313.568604 1137.27002 313.568604 C 1125.817871 313.568604 1115.865723 311.154053 1107.415039 306.324951 C 1098.963867 301.495605 1092.479004 294.94165 1087.959961 286.663086 C 1083.441406 278.384521 1081.181641 269.243408 1081.181641 259.23999 L 1081.181641 255.307617 C 1081.181641 244.131348 1083.286133 234.162598 1087.494141 225.400879 C 1091.702637 216.639404 1097.773438 209.792236 1105.70752 204.859619 C 1113.641113 199.926758 1123.023438 197.460449 1133.854492 197.460449 C 1144.410156 197.460449 1153.413086 199.702637 1160.864258 204.187012 C 1168.314453 208.671143 1173.97168 215.0354 1177.834961 223.279541 C 1181.698242 231.523682 1183.630371 241.233887 1183.630371 252.410156 L 1183.630371 265.656006 Z M 1152.999023 242.268799 C 1152.861328 236.197754 1151.187988 231.403076 1147.97998 227.884521 C 1144.771973 224.366211 1139.994629 222.606934 1133.647949 222.606934 C 1127.714844 222.606934 1123.075195 224.572998 1119.729492 228.505371 C 1116.383301 232.437744 1114.192871 237.853516 1113.158203 244.752441 L 1152.999023 244.752441 L 1152.999023 242.268799 Z"/>
        </g>
        <path id="path9" fill="#764fc1" stroke="none" d="M 1296.984863 278.991211 C 1296.984863 297.900635 1281.655762 313.22998 1262.746094 313.22998 C 1243.836426 313.22998 1228.507324 297.900635 1228.507324 278.991211 C 1228.507324 260.081543 1243.836426 244.752441 1262.746094 244.752441 C 1281.655762 244.752441 1296.984863 260.081543 1296.984863 278.991211 Z"/>
        <g transform="scale(0.5) translate(155, 234)">
        <path id="path10" fill="#764fc1" stroke="none" d="M 313.984375 233.058838 L 313.984375 233.058594 C 313.984375 207.577393 293.023438 186.729004 267.404785 186.729004 L 234.239258 186.729004 L 221.205078 208.264404 C 219.875488 210.460938 218.807617 212.739502 217.884766 215.050537 C 217.67627 215.544434 217.463379 216.034424 217.272461 216.534912 C 217.212402 216.702637 217.158203 216.871582 217.100098 217.039795 C 212.598633 229.244629 213.180664 243.23877 219.966309 255.437744 L 233.288086 279.388428 L 267.404785 279.388428 C 293.023438 279.388428 313.984375 258.540039 313.984375 233.058838 Z"/>
        </g>
    </g>
</svg>
